<?xml version="1.0" encoding="utf-8"?><svg xmlns="http://www.w3.org/2000/svg" xmlns:xlink="http://www.w3.org/1999/xlink"><symbol viewBox="0 0 24 24" stroke-width="2" stroke-linecap="round" stroke-linejoin="round" class="aalucide aalucide-arrow-right-icon aalucide-arrow-right" id="arrow-right" xmlns="http://www.w3.org/2000/svg"><path d="M5 12h14"/><path d="m12 5 7 7-7 7"/></symbol><symbol viewBox="0 0 24 24" stroke-width="2" stroke-linecap="round" stroke-linejoin="round" id="bell"><path d="M6 8a6 6 0 0 1 12 0c0 7 3 9 3 9H3s3-2 3-9"/><path d="M10.3 21a1.94 1.94 0 0 0 3.4 0"/></symbol><symbol viewBox="0 0 24 24" stroke-width="2" stroke-linecap="round" stroke-linejoin="round" class="aclucide aclucide-briefcase-business-icon aclucide-briefcase-business" id="briefcase" xmlns="http://www.w3.org/2000/svg"><path d="M12 12h.01"/><path d="M16 6V4a2 2 0 0 0-2-2h-4a2 2 0 0 0-2 2v2"/><path d="M22 13a18.15 18.15 0 0 1-20 0"/><rect x="2" y="6" rx="2"/></symbol><symbol viewBox="0 0 24 24" stroke-width="2" stroke-linecap="round" stroke-linejoin="round" class="aelucide aelucide-calendar-icon aelucide-calendar" id="calender" xmlns="http://www.w3.org/2000/svg"><path d="M8 2v4"/><path d="M16 2v4"/><rect x="3" y="4" rx="2"/><path d="M3 10h18"/></symbol><symbol viewBox="0 0 24 24" stroke-width="2" stroke-linecap="round" stroke-linejoin="round" class="adlucide adlucide-calendar-check-icon adlucide-calendar-check" id="calender-check" xmlns="http://www.w3.org/2000/svg"><path d="M8 2v4"/><path d="M16 2v4"/><rect x="3" y="4" rx="2"/><path d="M3 10h18"/><path d="m9 16 2 2 4-4"/></symbol><symbol viewBox="0 0 24 24" stroke-width="2" stroke-linecap="round" stroke-linejoin="round" id="chevron-down"><polyline points="6 9 12 15 18 9"/></symbol><symbol viewBox="0 0 24 24" stroke-width="2" stroke-linecap="round" stroke-linejoin="round" class="aglucide aglucide-chevron-left-icon aglucide-chevron-left" id="chevron-left" xmlns="http://www.w3.org/2000/svg"><path d="m15 18-6-6 6-6"/></symbol><symbol viewBox="0 0 24 24" stroke-width="2" stroke-linecap="round" stroke-linejoin="round" class="ahlucide ahlucide-chevron-right-icon ahlucide-chevron-right" id="chevron-right" xmlns="http://www.w3.org/2000/svg"><path d="m9 18 6-6-6-6"/></symbol><symbol viewBox="0 0 24 24" stroke-width="2" stroke-linecap="round" stroke-linejoin="round" class="ailucide ailucide-cigarette-icon ailucide-cigarette" id="cigarette" xmlns="http://www.w3.org/2000/svg"><path d="M17 12H3a1 1 0 0 0-1 1v2a1 1 0 0 0 1 1h14"/><path d="M18 8c0-2.5-2-2.5-2-5"/><path d="M21 16a1 1 0 0 0 1-1v-2a1 1 0 0 0-1-1"/><path d="M22 8c0-2.5-2-2.5-2-5"/><path d="M7 12v4"/></symbol><symbol viewBox="0 0 24 24" stroke-width="2" stroke-linecap="round" stroke-linejoin="round" class="ajlucide ajlucide-circle-check-icon ajlucide-circle-check" id="circle-check" xmlns="http://www.w3.org/2000/svg"><circle cx="12" cy="12" r="10"/><path d="m9 12 2 2 4-4"/></symbol><symbol viewBox="0 0 24 24" stroke-width="2" stroke-linecap="round" stroke-linejoin="round" class="aklucide aklucide-clipboard-check-icon aklucide-clipboard-check" id="clickboardcheck" xmlns="http://www.w3.org/2000/svg"><rect x="8" y="2" rx="1" ry="1"/><path d="M16 4h2a2 2 0 0 1 2 2v14a2 2 0 0 1-2 2H6a2 2 0 0 1-2-2V6a2 2 0 0 1 2-2h2"/><path d="m9 14 2 2 4-4"/></symbol><symbol viewBox="0 0 24 24" stroke-width="2" stroke-linecap="round" stroke-linejoin="round" class="allucide allucide-clock-icon allucide-clock" id="clock" xmlns="http://www.w3.org/2000/svg"><path d="M12 6v6l4 2"/><circle cx="12" cy="12" r="10"/></symbol><symbol viewBox="0 0 24 24" stroke-width="2" stroke-linecap="round" stroke-linejoin="round" class="amlucide amlucide-credit-card-icon amlucide-credit-card" id="credit-card" xmlns="http://www.w3.org/2000/svg"><rect x="2" y="5" rx="2"/><line x1="2" x2="22" y1="10" y2="10"/></symbol><symbol viewBox="0 0 24 24" stroke-width="2" stroke-linecap="round" stroke-linejoin="round" class="anlucide anlucide-dollar-sign-icon anlucide-dollar-sign" id="dollar-sign" xmlns="http://www.w3.org/2000/svg"><line x1="12" x2="12" y1="2" y2="22"/><path d="M17 5H9.5a3.5 3.5 0 0 0 0 7h5a3.5 3.5 0 0 1 0 7H6"/></symbol><symbol viewBox="0 0 24 24" stroke-width="2" stroke-linecap="round" stroke-linejoin="round" id="eye"><path d="M1 12s4-8 11-8 11 8 11 8-4 8-11 8-11-8-11-8z"/><circle cx="12" cy="12" r="3"/></symbol><symbol viewBox="0 0 24 24" stroke-width="2" stroke-linecap="round" stroke-linejoin="round" class="aolucide aolucide-eye-off-icon aolucide-eye-off" id="eye-off" xmlns="http://www.w3.org/2000/svg"><path d="M10.733 5.076a10.744 10.744 0 0 1 11.205 6.575 1 1 0 0 1 0 .696 10.747 10.747 0 0 1-1.444 2.49"/><path d="M14.084 14.158a3 3 0 0 1-4.242-4.242"/><path d="M17.479 17.499a10.75 10.75 0 0 1-15.417-5.151 1 1 0 0 1 0-.696 10.75 10.75 0 0 1 4.446-5.143"/><path d="m2 2 20 20"/></symbol><symbol viewBox="0 0 24 24" stroke-width="2" stroke-linecap="round" stroke-linejoin="round" class="aqlucide aqlucide-folder-plus-icon aqlucide-folder-plus" id="file-check" xmlns="http://www.w3.org/2000/svg"><path d="M12 10v6"/><path d="M9 13h6"/><path d="M20 20a2 2 0 0 0 2-2V8a2 2 0 0 0-2-2h-7.9a2 2 0 0 1-1.69-.9L9.6 3.9A2 2 0 0 0 7.93 3H4a2 2 0 0 0-2 2v13a2 2 0 0 0 2 2Z"/></symbol><symbol viewBox="0 0 24 24" stroke-width="2" stroke-linecap="round" stroke-linejoin="round" id="file-text"><path d="M14 2H6a2 2 0 0 0-2 2v16a2 2 0 0 0 2 2h12a2 2 0 0 0 2-2V8z"/><polyline points="14 2 14 8 20 8"/><line x1="12" y1="13" x2="8" y2="13"/><line x1="12" y1="17" x2="8" y2="17"/><polyline points="9 9 8 9 8 8"/></symbol><symbol viewBox="0 0 24 24" stroke-width="2" stroke-linecap="round" stroke-linejoin="round" id="folder-archive"><path d="M22 19a2 2 0 0 1-2 2H4a2 2 0 0 1-2-2V5a2 2 0 0 1 2-2h5l2 3h9a2 2 0 0 1 2 2z"/><path d="M12 11v6"/><path d="M9 14h6"/></symbol><symbol viewBox="0 0 24 24" stroke-width="2" stroke-linecap="round" stroke-linejoin="round" class="atlucide atlucide-folder-open-icon atlucide-folder-open" id="folder-open" xmlns="http://www.w3.org/2000/svg"><path d="m6 14 1.5-2.9A2 2 0 0 1 9.24 10H20a2 2 0 0 1 1.94 2.5l-1.54 6a2 2 0 0 1-1.95 1.5H4a2 2 0 0 1-2-2V5a2 2 0 0 1 2-2h3.9a2 2 0 0 1 1.69.9l.81 1.2a2 2 0 0 0 1.67.9H18a2 2 0 0 1 2 2v2"/></symbol><symbol viewBox="0 0 24 24" stroke-width="2" stroke-linecap="round" stroke-linejoin="round" class="aulucide aulucide-folder-plus-icon aulucide-folder-plus" id="folder-plus" xmlns="http://www.w3.org/2000/svg"><path d="M12 10v6"/><path d="M9 13h6"/><path d="M20 20a2 2 0 0 0 2-2V8a2 2 0 0 0-2-2h-7.9a2 2 0 0 1-1.69-.9L9.6 3.9A2 2 0 0 0 7.93 3H4a2 2 0 0 0-2 2v13a2 2 0 0 0 2 2Z"/></symbol><symbol viewBox="0 0 24 24" stroke-width="2" stroke-linecap="round" stroke-linejoin="round" class="avlucide avlucide-circle-gauge-icon avlucide-circle-gauge" id="gauge" xmlns="http://www.w3.org/2000/svg"><path d="M15.6 2.7a10 10 0 1 0 5.7 5.7"/><circle cx="12" cy="12" r="2"/><path d="M13.4 10.6 19 5"/></symbol><symbol viewBox="0 0 24 24" stroke-width="2" stroke-linecap="round" stroke-linejoin="round" id="gavel"><path d="M18 5v8a2 2 0 0 1-2 2h-2l4 5v-5h2a2 2 0 0 0 2-2V5z"/><path d="M2 9a2 2 0 0 1 2-2h2l-4-5v5H4a2 2 0 0 0-2 2z"/><line x1="7" y1="5" x2="17" y2="5"/><line x1="7" y1="19" x2="17" y2="19"/></symbol><symbol viewBox="0 0 24 24" id="google" xmlns="http://www.w3.org/2000/svg"><path d="M22.56 12.25c0-.78-.07-1.53-.2-2.25H12v4.26h5.92c-.26 1.37-1.04 2.53-2.21 3.31v2.77h3.57c2.08-1.92 3.28-4.74 3.28-8.09z"/><path d="M12 23c2.97 0 5.46-.98 7.28-2.66l-3.57-2.77c-.98.66-2.23 1.06-3.71 1.06-2.86 0-5.29-1.93-6.16-4.53H2.18v2.84C3.99 20.53 7.7 23 12 23z"/><path d="M5.84 14.09c-.22-.66-.35-1.36-.35-2.09s.13-1.43.35-2.09V7.07H2.18C1.43 8.55 1 10.22 1 12s.43 3.45 1.18 4.93l2.85-2.22.81-.62z"/><path d="M12 5.38c1.62 0 3.06.56 4.21 1.64l3.15-3.15C17.45 2.09 14.97 1 12 1 7.7 1 3.99 3.47 2.18 7.07l3.66 2.84c.87-2.6 3.3-4.53 6.16-4.53z"/></symbol><symbol viewBox="0 0 24 24" stroke-width="2" stroke-linecap="round" stroke-linejoin="round" class="aylucide aylucide-handshake-icon aylucide-handshake" id="handshake" xmlns="http://www.w3.org/2000/svg"><path d="m11 17 2 2a1 1 0 1 0 3-3"/><path d="m14 14 2.5 2.5a1 1 0 1 0 3-3l-3.88-3.88a3 3 0 0 0-4.24 0l-.88.88a1 1 0 1 1-3-3l2.81-2.81a5.79 5.79 0 0 1 7.06-.87l.47.28a2 2 0 0 0 1.42.25L21 4"/><path d="m21 3 1 11h-2"/><path d="M3 3 2 14l6.5 6.5a1 1 0 1 0 3-3"/><path d="M3 4h8"/></symbol><symbol viewBox="0 0 24 24" stroke-width="2" stroke-linecap="round" stroke-linejoin="round" id="help-circle"><circle cx="12" cy="12" r="10"/><path d="M12 16v-4"/><path d="M12 8h.01"/></symbol><symbol viewBox="0 0 24 24" stroke-width="2" stroke-linecap="round" stroke-linejoin="round" class="balucide balucide-house-icon balucide-house" id="home" xmlns="http://www.w3.org/2000/svg"><path d="M15 21v-8a1 1 0 0 0-1-1h-4a1 1 0 0 0-1 1v8"/><path d="M3 10a2 2 0 0 1 .709-1.528l7-6a2 2 0 0 1 2.582 0l7 6A2 2 0 0 1 21 10v9a2 2 0 0 1-2 2H5a2 2 0 0 1-2-2z"/></symbol><symbol viewBox="0 0 24 24" stroke-width="2" stroke-linecap="round" stroke-linejoin="round" id="layers"><polygon points="12 2 20 6 20 18 12 22 4 18 4 6 12 2"/><polyline points="12 22 12 12"/><polyline points="20 6 12 12 4 6"/><polyline points="20 18 12 12 4 18"/></symbol><symbol viewBox="0 0 24 24" stroke-width="2" stroke-linecap="round" stroke-linejoin="round" class="bclucide bclucide-layout-dashboard-icon bclucide-layout-dashboard" id="layout-dashboard" xmlns="http://www.w3.org/2000/svg"><rect x="3" y="3" rx="1"/><rect x="14" y="3" rx="1"/><rect x="14" y="12" rx="1"/><rect x="3" y="16" rx="1"/></symbol><symbol viewBox="0 0 24 24" stroke-width="2" stroke-linecap="round" stroke-linejoin="round" id="log-out"><path d="M9 21H5a2 2 0 0 1-2-2V5a2 2 0 0 1 2-2h4"/><polyline points="16 17 21 12 16 7"/><line x1="21" y1="12" x2="9" y2="12"/></symbol><symbol viewBox="0 0 24 24" stroke-width="2" stroke-linecap="round" stroke-linejoin="round" class="belucide belucide-map-icon belucide-map" id="map-pin" xmlns="http://www.w3.org/2000/svg"><path d="M14.106 5.553a2 2 0 0 0 1.788 0l3.659-1.83A1 1 0 0 1 21 4.619v12.764a1 1 0 0 1-.553.894l-4.553 2.277a2 2 0 0 1-1.788 0l-4.212-2.106a2 2 0 0 0-1.788 0l-3.659 1.83A1 1 0 0 1 3 19.381V6.618a1 1 0 0 1 .553-.894l4.553-2.277a2 2 0 0 1 1.788 0z"/><path d="M15 5.764v15"/><path d="M9 3.236v15"/></symbol><symbol viewBox="0 0 24 24" stroke-width="2" stroke-linecap="round" stroke-linejoin="round" id="menu"><line x1="4" y1="6" x2="20" y2="6"/><line x1="4" y1="12" x2="20" y2="12"/><line x1="4" y1="18" x2="20" y2="18"/></symbol><symbol viewBox="0 0 24 24" id="microsoft" xmlns="http://www.w3.org/2000/svg"><rect x="3" y="3"/><rect x="14" y="3"/><rect x="3" y="14"/><rect x="14" y="14"/></symbol><symbol viewBox="0 0 24 24" stroke-width="2" stroke-linecap="round" stroke-linejoin="round" class="bhlucide bhlucide-paw-print-icon bhlucide-paw-print" id="paw-print" xmlns="http://www.w3.org/2000/svg"><circle cx="11" cy="4" r="2"/><circle cx="18" cy="8" r="2"/><circle cx="20" cy="16" r="2"/><path d="M9 10a5 5 0 0 1 5 5v3.5a3.5 3.5 0 0 1-6.84 1.045Q6.52 17.48 4.46 16.84A3.5 3.5 0 0 1 5.5 10Z"/></symbol><symbol viewBox="0 0 24 24" stroke-width="2" stroke-linecap="round" stroke-linejoin="round" class="bilucide bilucide-pen-tool-icon bilucide-pen-tool" id="pen-tool" xmlns="http://www.w3.org/2000/svg"><path d="M15.707 21.293a1 1 0 0 1-1.414 0l-1.586-1.586a1 1 0 0 1 0-1.414l5.586-5.586a1 1 0 0 1 1.414 0l1.586 1.586a1 1 0 0 1 0 1.414z"/><path d="m18 13-1.375-6.874a1 1 0 0 0-.746-.776L3.235 2.028a1 1 0 0 0-1.207 1.207L5.35 15.879a1 1 0 0 0 .776.746L13 18"/><path d="m2.3 2.3 7.286 7.286"/><circle cx="11" cy="11" r="2"/></symbol><symbol viewBox="0 0 24 24" stroke-width="2" stroke-linecap="round" stroke-linejoin="round" id="plus-circle"><circle cx="12" cy="12" r="10"/><path d="M8 12h8"/><path d="M12 8v8"/></symbol><symbol viewBox="0 0 24 24" stroke-width="2" stroke-linecap="round" stroke-linejoin="round" id="plus-circle-solid"><circle cx="12" cy="12" r="10"/><line x1="12" y1="8" x2="12" y2="16"/><line x1="8" y1="12" x2="16" y2="12"/></symbol><symbol viewBox="0 0 24 24" stroke-width="2" stroke-linecap="round" stroke-linejoin="round" class="bllucide bllucide-podcast-icon bllucide-podcast" id="podcast" xmlns="http://www.w3.org/2000/svg"><path d="M13 17a1 1 0 1 0-2 0l.5 4.5a0.5 0.5 0 0 0 1 0z"/><path d="M16.85 18.58a9 9 0 1 0-9.7 0"/><path d="M8 14a5 5 0 1 1 8 0"/><circle cx="12" cy="11" r="1"/></symbol><symbol viewBox="0 0 24 24" id="quote" xmlns="http://www.w3.org/2000/svg"><path d="M3 21c3 0 7-1 7-8V5c0-1.25-4.5-5-7-5S1 3.75 1 5v11C1 20 3 21 3 21z"/><path d="M15 21c3 0 7-1 7-8V5c0-1.25-4.5-5-7-5s-7 3.75-7 5v11c0 7 2 8 7 8z"/></symbol><symbol viewBox="0 0 24 24" stroke-width="2" stroke-linecap="round" stroke-linejoin="round" id="search"><circle cx="11" cy="11" r="8"/><path d="m21 21-4.35-4.35"/></symbol><symbol viewBox="0 0 24 24" stroke-width="2" stroke-linecap="round" stroke-linejoin="round" class="bolucide bolucide-settings-icon bolucide-settings" id="settings" xmlns="http://www.w3.org/2000/svg"><path d="M9.671 4.136a2.34 2.34 0 0 1 4.659 0 2.34 2.34 0 0 0 3.319 1.915 2.34 2.34 0 0 1 2.33 4.033 2.34 2.34 0 0 0 0 3.831 2.34 2.34 0 0 1-2.33 4.033 2.34 2.34 0 0 0-3.319 1.915 2.34 2.34 0 0 1-4.659 0 2.34 2.34 0 0 0-3.32-1.915 2.34 2.34 0 0 1-2.33-4.033 2.34 2.34 0 0 0 0-3.831A2.34 2.34 0 0 1 6.35 6.051a2.34 2.34 0 0 0 3.319-1.915"/><circle cx="12" cy="12" r="3"/></symbol><symbol viewBox="0 0 24 24" stroke-width="2" stroke-linecap="round" stroke-linejoin="round" class="bplucide bplucide-ambulance-icon bplucide-ambulance" id="shield-check" xmlns="http://www.w3.org/2000/svg"><path d="M10 10H6"/><path d="M14 18V6a2 2 0 0 0-2-2H4a2 2 0 0 0-2 2v11a1 1 0 0 0 1 1h2"/><path d="M19 18h2a1 1 0 0 0 1-1v-3.28a1 1 0 0 0-.684-.948l-1.923-.641a1 1 0 0 1-.578-.502l-1.539-3.076A1 1 0 0 0 16.382 8H14"/><path d="M8 8v4"/><path d="M9 18h6"/><circle cx="17" cy="18" r="2"/><circle cx="7" cy="18" r="2"/></symbol><symbol viewBox="0 0 24 24" stroke-width="2" stroke-linecap="round" stroke-linejoin="round" class="bqlucide bqlucide-sparkles-icon bqlucide-sparkles" id="sparkles" xmlns="http://www.w3.org/2000/svg"><path d="M11.017 2.814a1 1 0 0 1 1.966 0l1.051 5.558a2 2 0 0 0 1.594 1.594l5.558 1.051a1 1 0 0 1 0 1.966l-5.558 1.051a2 2 0 0 0-1.594 1.594l-1.051 5.558a1 1 0 0 1-1.966 0l-1.051-5.558a2 2 0 0 0-1.594-1.594l-5.558-1.051a1 1 0 0 1 0-1.966l5.558-1.051a2 2 0 0 0 1.594-1.594z"/><path d="M20 2v4"/><path d="M22 4h-4"/><circle cx="4" cy="20" r="2"/></symbol><symbol viewBox="0 0 24 24" stroke-width="2" stroke-linecap="round" stroke-linejoin="round" class="brlucide brlucide-file-check-icon brlucide-file-check" id="trending-up" xmlns="http://www.w3.org/2000/svg"><path d="M6 22a2 2 0 0 1-2-2V4a2 2 0 0 1 2-2h8a2.4 2.4 0 0 1 1.704.706l3.588 3.588A2.4 2.4 0 0 1 20 8v12a2 2 0 0 1-2 2z"/><path d="M14 2v5a1 1 0 0 0 1 1h5"/><path d="m9 15 2 2 4-4"/></symbol><symbol viewBox="0 0 24 24" stroke-width="2" stroke-linecap="round" stroke-linejoin="round" id="user"><path d="M20 21v-2a4 4 0 0 0-4-4H8a4 4 0 0 0-4 4v2"/><circle cx="12" cy="7" r="4"/></symbol><symbol viewBox="0 0 24 24" stroke-width="2" stroke-linecap="round" stroke-linejoin="round" id="users"><path d="M17 21v-2a4 4 0 0 0-4-4H5a4 4 0 0 0-4 4v2"/><circle cx="9" cy="7" r="4"/><path d="M23 21v-2a4 4 0 0 0-3-3.87"/><path d="M16 3.13a4 4 0 0 1 0 7.75"/></symbol><symbol viewBox="0 0 24 24" stroke-width="2" stroke-linecap="round" stroke-linejoin="round" id="x"><line x1="18" y1="6" x2="6" y2="18"/><line x1="6" y1="6" x2="18" y2="18"/></symbol><symbol viewBox="0 0 24 24" stroke-width="2" stroke-linecap="round" stroke-linejoin="round" class="bvlucide bvlucide-zap-icon bvlucide-zap" id="zap" xmlns="http://www.w3.org/2000/svg"><path d="M4 14a1 1 0 0 1-.78-1.63l9.9-10.2a.5.5 0 0 1 .86.46l-1.92 6.02A1 1 0 0 0 13 10h7a1 1 0 0 1 .78 1.63l-9.9 10.2a.5.5 0 0 1-.86-.46l1.92-6.02A1 1 0 0 0 11 14z"/></symbol></svg>